<svg xmlns="http://www.w3.org/2000/svg" xmlns:xlink="http://www.w3.org/1999/xlink" viewBox="0 0 500 500"><defs><style>.a{fill:url(#a);}.b{fill:url(#b);}.c{fill:url(#c);}</style><linearGradient id="a" x1="250" y1="469.26" x2="250" y2="30.74" gradientUnits="userSpaceOnUse"><stop offset="0" stop-color="#29abe2"/><stop offset="1"/></linearGradient><linearGradient id="b" x1="132.35" y1="292.94" x2="132.35" y2="190.28" gradientTransform="translate(169.98 144.97) rotate(45)" gradientUnits="userSpaceOnUse"><stop offset="0" stop-color="#f15a24"/><stop offset="1" stop-color="#f7931e"/></linearGradient><linearGradient id="c" x1="132.35" y1="176.28" x2="132.35" y2="-216.39" gradientTransform="translate(169.98 144.97) rotate(45)" gradientUnits="userSpaceOnUse"><stop offset="0" stop-color="#f7931e"/><stop offset="1" stop-color="#ed1c24"/></linearGradient></defs><title>Input manager logo</title><path class="a" d="M467,212.17a9,9,0,0,0-6-3.57l-52.25-8a172,172,0,0,0-11.7-28q5.13-7.14,15.41-20.13t14.56-19a11,11,0,0,0,2.28-6.57,9.19,9.19,0,0,0-2-6.28Q417,106.11,380.18,72.13a11,11,0,0,0-7.13-2.85,9.27,9.27,0,0,0-6.85,2.57l-40.54,30.55A176.47,176.47,0,0,0,300,91.83L292,39.3a8.47,8.47,0,0,0-3.29-6.14,10.78,10.78,0,0,0-7-2.43H218.31q-8.28,0-10.28,8-3.71,14.27-8.28,53.1a163.37,163.37,0,0,0-26,10.85l-39.4-30.55a12.15,12.15,0,0,0-7.42-2.85q-6.28,0-27,20.41T71.85,120.38q-2.57,3.71-2.57,6.57a10.72,10.72,0,0,0,2.85,6.85q19.13,23.13,30.55,39.4a140.79,140.79,0,0,0-11.13,26.26l-53.1,8A8.61,8.61,0,0,0,33,211.17a11,11,0,0,0-2.29,6.56v63.38A10.78,10.78,0,0,0,33,287.83a9,9,0,0,0,6,3.57l52.25,7.71A141,141,0,0,0,103,327.37q-5.14,7.14-15.42,20.13T73,366.48a11,11,0,0,0-2.28,6.57,11.16,11.16,0,0,0,2,6.56q11.13,15.43,47.11,48a9.84,9.84,0,0,0,7.14,3.14,10.27,10.27,0,0,0,7.14-2.56l40.26-30.55A177.1,177.1,0,0,0,200,408.17l8,52.53a8.49,8.49,0,0,0,3.28,6.14,10.76,10.76,0,0,0,7,2.42H281.7q8.3,0,10.29-8,3.71-14.27,8.27-53.1a163,163,0,0,0,26-10.86l39.4,30.84a13.94,13.94,0,0,0,7.42,2.56q6.28,0,26.83-20.27t28.26-30.84a9.53,9.53,0,0,0,2.57-6.56,11,11,0,0,0-2.86-7.14q-20.55-25.13-30.55-39.4a183,183,0,0,0,11.14-26l52.82-8a8.7,8.7,0,0,0,5.71-3.72,11,11,0,0,0,2.28-6.57V218.88A10.73,10.73,0,0,0,467,212.17Zm-165.3,89.5Q280.28,323.09,250,323.09t-51.68-21.42Q176.92,280.27,176.92,250t21.41-51.68q21.42-21.41,51.68-21.41t51.68,21.41q21.41,21.42,21.41,51.68T301.68,301.67Z"/><polygon class="b" points="174.98 419.06 54.31 443.57 83.06 327.14 174.98 419.06"/><path class="c" d="M433.78,160.26l-248.9,248.9L93,317.24l248.9-248.9a40.67,40.67,0,0,1,57.52,0l34.41,34.41A40.67,40.67,0,0,1,433.78,160.26Z"/></svg>